<svg width="101" height="37" viewBox="0 0 101 37" fill="none" xmlns="http://www.w3.org/2000/svg">
<g filter="url(#filter0_d_914_2)">
<path fill-rule="evenodd" clip-rule="evenodd" d="M31.6444 9.60008C34.0385 9.60008 35.8044 10.086 36.9422 11.0579C38.0131 11.9725 38.58 13.5276 38.643 15.7231L38.6489 16.1423V27.9112H34.4178L33.8844 25.209L33.6079 25.514C31.8391 27.3966 29.7387 28.3379 27.3067 28.3379C25.6 28.3379 24.2074 27.8875 23.1289 26.9867C22.1223 26.1461 21.5854 24.9956 21.5183 23.5355L21.5111 23.2179V21.4045L21.5185 21.1046C21.5821 19.8256 22.0597 18.8174 22.9511 18.0801C23.8373 17.3471 25.0415 16.9524 26.5639 16.896L26.9511 16.889H33.28V16.1067L33.274 15.8452C33.2377 15.0868 33.0382 14.5636 32.6756 14.2756C32.2726 13.9556 31.5022 13.7956 30.3644 13.7956C28.5484 13.7956 26.2779 13.8764 23.5529 14.038L22.8622 14.0801L22.3644 10.489L23.3532 10.3201C26.2994 9.84008 29.0631 9.60008 31.6444 9.60008ZM48.1778 2.66675V8.32008L48.1721 8.86351C48.1416 10.2869 47.9895 11.5043 47.7156 12.5156C49.6119 10.5719 51.7215 9.60008 54.0444 9.60008C56.3437 9.60008 58.003 10.3171 59.0222 11.7512C60.0415 13.1853 60.5511 15.5497 60.5511 18.8445C60.5511 20.3142 60.4267 21.5882 60.1778 22.6667C59.9289 23.7453 59.5022 24.729 58.8978 25.6179C58.2933 26.5067 57.4044 27.1823 56.2311 27.6445C55.0578 28.1067 53.6059 28.3379 51.8756 28.3379C50.4296 28.3379 48.8118 28.2193 47.0222 27.9823C45.3953 27.7668 44.0867 27.473 43.0964 27.1008L42.8089 26.9867V2.66675H48.1778ZM82.3487 9.86675L86.209 16.8299H86.5732L90.4699 9.86675H96.0418L90.8341 18.6795L96.4424 28.0001H90.8341L86.5004 20.3841H86.2819L81.9481 28.0001H76.3398L81.9481 18.6795L76.7404 9.86675H82.3487ZM9.47555 2.91564C14.7852 2.91564 18.5185 3.04601 20.6756 3.30675L20.3911 7.32453H11.4667L11.2178 7.33147C10.6578 7.36388 10.243 7.50971 9.97333 7.76897C9.66518 8.06527 9.51111 8.53341 9.51111 9.17342V13.4401H19.04V17.4579H9.51111V27.9112H4V8.07119L4.00762 7.73115C4.07365 6.28081 4.56889 5.13193 5.49333 4.28453C6.48889 3.37193 7.8163 2.91564 9.47555 2.91564ZM75.68 9.60008L75.1467 14.5423H73.6889L73.476 14.5472C72.369 14.5958 70.6267 15.009 68.2489 15.7867V27.9112H62.9156V10.1334H67.0756L67.5378 12.729L67.923 12.4083C70.2324 10.5361 72.5099 9.60008 74.7555 9.60008H75.68ZM51.9111 13.8667C50.9867 13.8667 49.8374 14.3062 48.4633 15.185L48.1422 15.3956V24.0356L48.6516 24.1474C49.6733 24.3506 50.7124 24.4318 51.7689 24.3912C53.0015 24.3438 53.8607 23.9349 54.3467 23.1645C54.8326 22.3942 55.0756 20.966 55.0756 18.8801C55.0756 16.9127 54.8681 15.5853 54.4533 14.8979C54.0385 14.2105 53.1911 13.8667 51.9111 13.8667ZM33.28 20.1245H28.48L28.2733 20.1311C27.34 20.192 26.8422 20.6794 26.78 21.5933L26.7733 21.7956V22.5067L26.7806 22.7179C26.858 23.8097 27.5549 24.3556 28.8711 24.3556C30.1917 24.3556 31.5533 23.8549 32.9556 22.8534L33.28 22.6134V20.1245Z" fill="#212121"/>
</g>
<defs>
<filter id="filter0_d_914_2" x="0" y="0" width="100.442" height="40" filterUnits="userSpaceOnUse" color-interpolation-filters="sRGB">
<feFlood flood-opacity="0" result="BackgroundImageFix"/>
<feColorMatrix in="SourceAlpha" type="matrix" values="0 0 0 0 0 0 0 0 0 0 0 0 0 0 0 0 0 0 127 0" result="hardAlpha"/>
<feOffset dy="4"/>
<feGaussianBlur stdDeviation="2"/>
<feComposite in2="hardAlpha" operator="out"/>
<feColorMatrix type="matrix" values="0 0 0 0 0 0 0 0 0 0 0 0 0 0 0 0 0 0 0.25 0"/>
<feBlend mode="normal" in2="BackgroundImageFix" result="effect1_dropShadow_914_2"/>
<feBlend mode="normal" in="SourceGraphic" in2="effect1_dropShadow_914_2" result="shape"/>
</filter>
</defs>
</svg>
